<?xml version="1.0" standalone="no"?>
<!DOCTYPE svg PUBLIC "-//W3C//DTD SVG 20010904//EN"
 "http://www.w3.org/TR/2001/REC-SVG-20010904/DTD/svg10.dtd">
<svg version="1.0" xmlns="http://www.w3.org/2000/svg"
 width="2000.000000pt" height="2000.000000pt" viewBox="0 0 2000.000000 2000.000000"
 preserveAspectRatio="xMidYMid meet">

<g transform="translate(0.000000,2000.000000) scale(0.100000,-0.100000)"
fill="#000000" stroke="none">
<path d="M9825 16784 c-38 -2 -153 -11 -255 -19 -1994 -167 -3806 -1196 -4967
-2822 -581 -815 -978 -1754 -1152 -2728 -44 -246 -44 -254 3 -301 26 -26 42
-34 70 -34 44 0 91 23 106 50 6 11 24 96 40 188 46 266 88 446 165 714 117
400 246 724 446 1118 620 1223 1637 2245 2864 2876 342 176 598 283 965 404
1040 344 2137 416 3240 213 1154 -212 2251 -748 3135 -1532 762 -676 1350
-1510 1731 -2458 196 -488 331 -1000 404 -1532 17 -124 34 -241 36 -260 8 -51
53 -91 103 -91 84 0 125 42 123 125 -2 93 -53 429 -97 650 -261 1297 -893
2484 -1821 3421 -158 160 -207 206 -359 339 -669 589 -1469 1050 -2310 1330
-528 176 -1023 279 -1595 330 -166 15 -723 27 -875 19z"/>
<path d="M9367 15570 c-37 -29 -40 -61 -15 -143 33 -107 29 -187 -16 -317 -43
-123 -53 -211 -37 -304 19 -106 48 -174 83 -192 38 -20 81 -10 108 23 25 32
25 52 0 131 -31 99 -27 174 18 300 34 100 37 115 37 222 0 188 -47 300 -125
300 -15 0 -39 -9 -53 -20z"/>
<path d="M9912 15574 c-40 -28 -45 -58 -20 -137 33 -112 30 -189 -15 -326 -21
-63 -41 -142 -44 -176 -6 -65 15 -195 44 -267 28 -71 109 -87 154 -30 23 30
22 52 -6 152 -24 88 -19 146 26 287 40 124 41 131 36 238 -7 172 -53 275 -125
275 -15 0 -38 -7 -50 -16z"/>
<path d="M10457 15579 c-11 -6 -25 -26 -32 -43 -12 -29 -12 -40 7 -97 34 -103
30 -201 -14 -329 -20 -58 -39 -130 -43 -161 -12 -95 26 -280 65 -319 42 -42
109 -32 139 22 14 24 13 34 -7 111 -30 113 -28 171 7 276 46 136 53 169 53
250 0 80 -22 192 -48 246 -23 49 -83 69 -127 44z"/>
<path d="M8283 14306 l-28 -24 0 -534 c0 -474 2 -545 18 -638 31 -171 81 -321
162 -485 89 -178 176 -300 317 -442 l102 -103 -447 0 c-476 0 -501 -2 -526
-48 -16 -29 -14 -104 5 -176 49 -190 200 -341 391 -391 86 -23 3240 -23 3326
0 190 49 343 202 392 391 18 68 20 147 4 176 -24 45 -51 48 -501 48 l-423 0
100 102 c109 112 188 213 255 326 l43 72 124 0 c140 0 248 18 338 58 289 125
471 416 452 722 -23 367 -292 647 -669 695 l-48 6 0 104 c0 57 -3 111 -6 120
-18 47 47 45 -1708 45 l-1645 0 -28 -24z m1587 -415 l0 -259 -150 -107 -150
-107 0 -444 0 -444 390 0 390 0 0 448 -1 447 -149 105 -150 105 0 258 0 257
726 0 726 0 -4 -467 c-4 -435 -6 -476 -27 -577 -46 -222 -134 -430 -259 -606
-82 -116 -249 -285 -358 -362 l-81 -58 -811 0 -811 0 -98 73 c-247 185 -447
460 -543 746 -71 212 -73 226 -77 764 l-5 487 721 0 721 0 0 -259z m1904 -211
c84 -26 177 -109 221 -197 28 -53 30 -67 30 -163 0 -96 -3 -110 -29 -165 -61
-123 -181 -206 -308 -213 -38 -3 -68 0 -68 4 0 5 10 52 21 104 18 80 22 139
26 373 6 317 -5 291 107 257z m46 -1793 c0 -7 -12 -36 -26 -65 -33 -67 -119
-144 -192 -174 l-57 -23 -1605 0 -1605 0 -57 23 c-73 30 -159 107 -192 174
-14 29 -26 58 -26 65 0 11 341 13 1880 13 1539 0 1880 -2 1880 -13z"/>
<path d="M6216 12879 c-76 -11 -214 -54 -245 -75 -60 -43 -62 -133 -4 -185 31
-27 41 -30 82 -26 25 2 82 14 125 25 134 37 209 31 393 -29 173 -57 258 -69
385 -57 90 9 213 40 271 70 39 19 67 65 67 108 0 55 -65 120 -120 120 -14 0
-61 -12 -105 -27 -68 -23 -97 -27 -190 -27 -105 1 -116 3 -243 47 -187 66
-272 77 -416 56z"/>
<path d="M13175 12880 c-79 -12 -209 -50 -244 -71 -18 -11 -39 -36 -48 -56
-20 -48 -5 -101 39 -138 37 -32 76 -31 202 3 129 36 211 31 374 -22 198 -64
214 -68 331 -67 79 0 131 7 204 25 132 34 178 60 196 112 17 50 10 84 -28 126
-26 29 -35 33 -78 32 -26 -1 -91 -14 -143 -29 -136 -38 -221 -32 -395 29 -181
63 -277 76 -410 56z"/>
<path d="M4056 10709 c-257 -21 -517 -150 -696 -346 -252 -276 -397 -631 -456
-1123 -26 -208 -26 -661 -1 -818 53 -332 173 -554 346 -636 60 -28 74 -31 161
-30 155 1 235 44 336 177 57 76 73 112 124 281 49 161 68 274 120 693 22 180
43 343 47 361 l5 33 86 -3 85 -3 19 -110 c47 -282 157 -614 295 -889 114 -227
218 -379 368 -534 160 -167 287 -232 450 -232 151 0 263 50 396 177 101 97
142 157 134 198 -10 54 -85 112 -128 99 -12 -4 -48 -30 -79 -59 -31 -29 -83
-66 -115 -82 -50 -24 -70 -28 -143 -28 -120 0 -175 28 -301 154 -195 197 -398
559 -533 955 -35 100 -115 380 -111 384 2 2 43 12 92 23 202 44 314 97 416
197 122 120 169 237 170 422 1 103 -2 124 -29 200 -37 105 -84 177 -171 264
-157 157 -385 257 -622 271 -47 3 -104 7 -126 9 -22 1 -85 -1 -139 -5z m329
-311 c287 -43 447 -242 407 -505 -22 -141 -85 -231 -197 -284 -81 -38 -240
-68 -396 -76 l-129 -6 14 44 c22 73 31 91 95 194 66 108 80 150 61 194 -18 46
-93 69 -160 51 -97 -26 -196 -170 -254 -370 l-24 -85 -95 3 c-91 4 -96 3 -110
-20 -25 -38 -29 -83 -13 -122 17 -41 59 -70 128 -87 41 -11 48 -17 48 -37 0
-45 -51 -467 -75 -622 -43 -282 -114 -541 -163 -599 -35 -42 -80 -47 -133 -14
-128 80 -211 490 -196 978 15 522 155 909 417 1158 199 190 445 255 775 205z"/>
<path d="M11595 10590 c-276 -24 -543 -150 -769 -361 -269 -252 -447 -619
-502 -1032 -31 -233 -7 -538 55 -720 97 -281 323 -489 606 -559 73 -17 118
-22 235 -21 277 1 522 78 768 240 79 52 234 195 281 258 l23 30 21 -30 c93
-129 197 -185 342 -185 142 0 269 54 362 153 64 69 100 132 137 243 l23 68
104 41 c57 23 115 47 128 54 23 13 23 12 17 -20 -33 -182 -60 -598 -52 -814
16 -456 126 -609 389 -540 164 43 239 119 297 300 32 100 41 443 15 596 -21
131 -67 310 -99 388 l-24 60 41 5 c23 3 76 8 117 11 41 4 104 13 140 20 36 7
66 12 68 10 2 -1 -6 -81 -17 -176 -11 -96 -26 -269 -32 -386 -26 -494 43 -782
199 -834 80 -26 247 9 337 71 78 53 143 178 164 310 42 269 14 561 -80 844
-22 65 -37 121 -35 123 2 3 51 9 108 14 57 5 127 13 157 19 30 5 54 10 55 10
0 0 0 -33 -2 -74 -11 -245 116 -421 349 -481 79 -21 262 -16 354 9 81 22 247
105 314 156 l53 41 16 -23 c54 -80 166 -154 279 -183 126 -33 316 -13 462 49
143 60 322 196 367 278 22 38 17 86 -11 113 -41 42 -74 34 -164 -39 -161 -130
-289 -181 -461 -181 -91 0 -112 3 -153 24 -47 23 -111 94 -104 115 2 5 30 16
63 23 282 63 488 191 544 338 49 129 24 285 -58 357 -145 126 -394 115 -561
-25 -156 -132 -258 -335 -268 -539 l-6 -107 -56 -42 c-236 -176 -555 -199
-654 -47 -15 23 -25 43 -23 45 2 2 53 17 112 33 285 75 451 189 502 343 74
227 -48 411 -282 425 -195 12 -351 -78 -483 -276 -52 -78 -62 -87 -120 -114
-89 -40 -174 -58 -278 -58 -91 0 -135 6 -135 19 0 4 26 38 58 77 384 458 575
833 575 1129 0 150 -38 231 -128 275 -38 18 -59 21 -128 19 -108 -5 -194 -45
-281 -133 -204 -204 -354 -565 -470 -1134 l-32 -157 -59 -29 c-92 -46 -185
-66 -294 -65 -159 2 -157 -6 -35 144 255 316 409 568 483 792 41 122 54 208
49 321 -5 108 -22 154 -79 210 -45 44 -87 55 -183 50 -65 -4 -93 -11 -142 -36
-255 -130 -457 -538 -594 -1200 -22 -107 -45 -201 -51 -208 -16 -19 -170 -92
-210 -99 l-36 -7 8 59 c17 120 -23 246 -104 327 -60 59 -126 88 -217 94 -95 6
-168 -9 -261 -54 -103 -49 -237 -185 -296 -299 -42 -81 -76 -178 -88 -249 -7
-44 -40 -96 -129 -204 -111 -135 -300 -278 -450 -341 -134 -56 -234 -75 -391
-75 -127 0 -147 3 -218 27 -152 53 -247 139 -322 292 -81 165 -116 397 -95
639 19 221 55 357 145 541 139 287 383 531 614 615 257 94 500 43 568 -118 23
-56 27 -150 9 -221 -41 -158 -204 -299 -420 -361 -170 -50 -216 -81 -216 -147
0 -25 8 -43 31 -65 l30 -31 92 6 c329 18 658 263 743 552 21 73 24 236 5 315
-65 267 -311 410 -656 380z m2664 -411 c43 -47 37 -180 -15 -319 -70 -185
-284 -533 -436 -708 l-28 -33 -11 28 c-13 34 -3 87 52 288 128 470 233 690
354 746 51 24 60 24 84 -2z m881 11 c43 -23 52 -140 20 -256 -52 -187 -234
-503 -438 -757 -50 -61 -88 -101 -90 -93 -6 26 97 420 158 607 93 285 177 437
269 486 50 26 55 27 81 13z m692 -1041 c27 -14 50 -73 42 -107 -21 -91 -147
-184 -362 -267 -39 -16 -74 -26 -76 -24 -11 11 19 131 45 185 66 133 178 224
277 224 29 0 62 -5 74 -11z m1011 -1 c34 -18 46 -40 47 -84 0 -69 -66 -143
-190 -212 -67 -38 -240 -105 -248 -97 -11 10 19 129 46 185 34 68 129 172 185
199 47 23 125 28 160 9z m-3949 -14 c32 -32 30 -60 -8 -110 -41 -54 -60 -113
-52 -160 7 -34 67 -97 106 -109 19 -6 21 -12 16 -43 -14 -87 -109 -222 -180
-256 -46 -22 -123 -20 -166 3 -106 57 -119 282 -26 475 42 88 116 172 171 197
50 23 118 25 139 3z m829 -379 c90 -215 146 -503 147 -747 0 -252 -53 -390
-155 -400 -26 -3 -33 2 -47 32 -42 85 -46 373 -13 930 8 135 15 254 15 265 0
19 0 19 14 0 7 -11 25 -47 39 -80z m882 23 c63 -137 119 -352 146 -552 17
-133 7 -416 -17 -484 -25 -69 -65 -118 -109 -132 -44 -14 -60 -4 -75 49 -20
70 -30 334 -20 553 13 306 33 638 37 638 2 0 19 -33 38 -72z"/>
<path d="M6808 9397 c-44 -26 -60 -47 -98 -126 -34 -70 -176 -209 -283 -275
-65 -41 -171 -86 -201 -86 -7 0 -11 38 -11 113 -1 133 -16 177 -92 258 -67 72
-129 101 -227 107 -215 13 -406 -104 -545 -333 -81 -134 -125 -338 -102 -477
34 -206 174 -349 359 -365 157 -13 308 42 406 148 59 63 126 187 146 270 12
46 13 47 78 69 37 13 102 40 146 62 43 22 80 38 82 36 2 -2 -30 -65 -71 -141
-41 -75 -75 -142 -75 -148 0 -23 79 -116 127 -151 26 -20 77 -50 112 -67 231
-116 621 -104 885 29 l79 39 41 -35 c98 -84 225 -120 394 -111 152 8 300 60
441 155 l45 30 40 -32 c160 -129 386 -179 661 -145 252 31 471 138 590 287 68
87 70 143 5 212 -49 53 -73 44 -173 -64 -114 -124 -288 -242 -262 -178 4 9 12
44 18 78 18 104 -19 188 -179 400 -135 180 -138 187 -104 254 24 47 26 126 4
158 -45 65 -157 69 -223 9 -13 -12 -70 -116 -128 -232 -58 -115 -141 -279
-186 -363 -76 -146 -84 -156 -142 -197 -222 -159 -511 -193 -623 -73 -19 21
-21 28 -11 56 9 25 19 34 52 43 276 72 451 179 515 316 24 51 27 70 27 158 0
77 -4 109 -18 136 -27 54 -85 108 -147 138 -49 23 -67 26 -165 26 -91 -1 -120
-5 -168 -24 -247 -98 -438 -438 -413 -731 l7 -76 -43 -31 c-42 -29 -128 -77
-128 -70 0 2 7 25 16 51 12 33 15 67 12 111 -8 96 -64 195 -225 399 -77 98
-85 120 -66 172 8 21 19 57 25 79 29 114 -99 196 -204 132z m1275 -257 c61
-49 36 -149 -56 -222 -57 -45 -172 -105 -273 -143 -37 -14 -69 -25 -72 -25 -2
0 -2 26 1 57 12 120 127 287 229 333 58 27 137 26 171 0z m-2184 -16 c25 -32
27 -57 5 -75 -9 -7 -29 -36 -45 -64 -52 -91 -33 -169 55 -220 52 -30 53 -38
11 -130 -33 -74 -80 -132 -133 -166 -42 -27 -54 -30 -109 -27 -110 7 -154 63
-161 207 -7 142 36 273 129 397 70 95 203 136 248 78z m1014 -231 c60 -100 94
-185 109 -272 11 -64 10 -75 -8 -118 -27 -66 -67 -88 -159 -88 -72 0 -142 26
-205 74 l-25 20 115 230 c63 127 117 231 120 231 3 0 27 -35 53 -77z m2087
-78 c60 -121 74 -174 68 -260 -3 -54 -8 -69 -32 -94 -35 -37 -101 -56 -167
-48 -53 7 -165 61 -182 88 -7 12 18 73 102 245 l112 229 25 -30 c13 -16 47
-75 74 -130z"/>
<path d="M8705 7321 c-84 -21 -135 -88 -135 -177 0 -31 -3 -34 -30 -34 -30 0
-30 -1 -30 -55 0 -54 0 -55 30 -55 l30 0 0 -215 0 -215 70 0 70 0 0 215 0 215
45 0 45 0 0 55 0 55 -45 0 c-45 0 -45 0 -45 34 0 40 18 62 60 71 29 6 30 9 30
61 l0 54 -32 -1 c-18 -1 -46 -4 -63 -8z"/>
<path d="M9045 7321 c-84 -21 -135 -88 -135 -177 0 -31 -3 -34 -30 -34 -30 0
-30 -1 -30 -55 0 -54 0 -55 30 -55 l30 0 0 -215 0 -215 70 0 70 0 0 215 0 215
45 0 45 0 0 55 0 55 -45 0 c-45 0 -45 0 -45 34 0 40 18 62 60 71 29 6 30 9 30
61 l0 54 -32 -1 c-18 -1 -46 -4 -63 -8z"/>
<path d="M11280 6930 l0 -360 64 0 64 0 4 173 c4 188 11 218 59 243 37 19 109
18 137 -2 46 -32 52 -61 52 -244 l0 -170 70 0 70 0 0 153 c0 188 -11 260 -47
311 -65 92 -216 112 -301 41 -17 -14 -33 -25 -36 -25 -3 0 -6 54 -6 120 l0
120 -65 0 -65 0 0 -360z"/>
<path d="M7385 7247 c-97 -33 -168 -96 -212 -192 -23 -51 -27 -73 -27 -145 0
-70 4 -95 26 -142 37 -80 96 -140 171 -174 52 -23 75 -28 147 -28 72 0 94 4
145 28 73 33 119 75 151 139 l24 47 -75 0 c-75 0 -76 0 -113 -39 -65 -69 -173
-77 -252 -20 -136 99 -109 346 45 405 81 31 192 1 225 -61 13 -23 18 -25 92
-25 l78 0 -15 38 c-22 53 -99 127 -159 153 -63 27 -191 35 -251 16z"/>
<path d="M10806 7245 c-88 -31 -128 -81 -134 -165 -8 -115 32 -160 189 -210
139 -45 182 -88 149 -151 -14 -25 -62 -49 -97 -49 -39 0 -91 34 -99 65 -6 24
-9 25 -79 25 l-73 0 7 -33 c11 -47 25 -70 65 -105 47 -41 98 -57 186 -57 122
1 198 50 230 148 20 64 5 124 -43 173 -35 34 -60 47 -146 75 -120 39 -151 63
-151 113 0 72 97 102 159 50 17 -14 31 -32 31 -40 0 -11 17 -14 75 -14 41 0
75 4 75 9 0 57 -71 143 -138 166 -56 19 -154 19 -206 0z"/>
<path d="M4083 7164 c-33 -17 -63 -66 -63 -105 0 -30 164 -345 279 -538 287
-479 620 -907 1006 -1296 125 -126 181 -179 321 -306 93 -84 298 -251 424
-345 950 -711 2057 -1162 3215 -1308 310 -40 488 -50 865 -50 377 0 556 10
865 50 1145 145 2239 585 3175 1277 395 293 796 663 1089 1007 35 41 73 86 85
100 197 231 452 592 623 880 128 216 235 422 240 461 9 68 -45 129 -114 129
-54 0 -90 -34 -139 -132 -60 -119 -129 -244 -217 -388 -997 -1645 -2646 -2761
-4537 -3069 -381 -62 -662 -84 -1075 -84 -1049 1 -2017 228 -2935 687 -815
408 -1504 957 -2111 1681 -267 318 -598 823 -789 1206 -78 154 -122 185 -207
143z"/>
<path d="M8089 7106 c-92 -33 -158 -99 -180 -179 -16 -60 -7 -173 19 -223 100
-195 406 -188 498 10 18 39 24 68 24 126 0 94 -28 160 -91 213 -70 61 -186 83
-270 53z m158 -126 c44 -26 66 -74 66 -140 0 -101 -54 -160 -145 -160 -65 0
-112 41 -127 110 -25 117 34 210 134 210 22 0 54 -9 72 -20z"/>
<path d="M9372 7101 c-141 -49 -210 -219 -152 -374 57 -153 264 -217 400 -124
39 26 85 82 95 115 6 21 4 22 -62 22 -63 0 -70 -2 -96 -30 -30 -32 -81 -46
-124 -36 -38 10 -93 69 -93 100 l0 26 198 2 197 3 -1 58 c-2 78 -27 138 -79
186 -74 68 -180 87 -283 52z m153 -105 c33 -14 75 -66 75 -93 0 -10 -33 -13
-130 -13 -122 0 -130 1 -130 19 0 24 46 80 74 91 32 13 73 11 111 -4z"/>
<path d="M10003 7110 c-17 -4 -51 -19 -75 -33 -80 -47 -118 -124 -118 -241 0
-154 97 -262 246 -274 108 -8 211 43 254 129 11 21 20 41 20 44 0 3 -30 5 -67
5 -61 0 -70 -3 -99 -31 -76 -73 -185 -39 -218 69 l-7 22 200 0 201 0 0 63 c0
175 -156 290 -337 247z m133 -116 c41 -19 64 -49 64 -81 0 -23 -1 -23 -130
-23 l-130 0 15 38 c19 44 21 46 60 66 39 20 78 20 121 0z"/>
<path d="M12079 7105 c-179 -57 -243 -307 -116 -451 61 -70 106 -89 207 -89
76 0 91 3 139 30 94 52 141 133 141 245 0 157 -102 266 -258 276 -43 2 -84 -1
-113 -11z m166 -125 c42 -26 65 -75 65 -140 0 -98 -54 -160 -140 -160 -95 0
-152 82 -135 196 7 47 44 100 79 114 38 15 98 11 131 -10z"/>
<path d="M12780 7099 c-25 -11 -55 -30 -67 -41 l-23 -21 0 36 0 37 -70 0 -70
0 0 -400 0 -400 70 0 70 0 0 165 0 166 38 -29 c164 -128 383 -5 386 218 1 92
-19 152 -71 210 -70 78 -171 101 -263 59z m130 -121 c67 -46 88 -133 50 -215
-35 -79 -130 -108 -201 -60 -124 83 -69 297 76 297 27 0 54 -8 75 -22z"/>
</g>
</svg>
